<mxfile host="app.diagrams.net" modified="2022-08-16T05:48:48.774Z" agent="5.0 (Windows NT 10.0; Win64; x64) AppleWebKit/537.36 (KHTML, like Gecko) Chrome/104.0.0.0 Safari/537.36" etag="5CgpIgVq-UEZgL-1jE_y" version="20.2.3" type="github">
  <diagram id="91fqGZHaZGScHNv5Kp51" name="第 1 页">
    <mxGraphModel dx="2249" dy="754" grid="1" gridSize="10" guides="1" tooltips="1" connect="1" arrows="1" fold="1" page="1" pageScale="1" pageWidth="827" pageHeight="1169" math="0" shadow="0">
      <root>
        <mxCell id="0" />
        <mxCell id="1" parent="0" />
        <mxCell id="hKfEfkx_NCAUf_qrGTdM-14" style="edgeStyle=orthogonalEdgeStyle;rounded=0;sketch=1;orthogonalLoop=1;jettySize=auto;html=1;exitX=1;exitY=0.25;exitDx=0;exitDy=0;entryX=0.6;entryY=-0.04;entryDx=0;entryDy=0;entryPerimeter=0;dashed=1;fontFamily=Comic Sans MS;fontColor=#FF0000;curved=1;startArrow=classic;startFill=1;" edge="1" parent="1" source="hKfEfkx_NCAUf_qrGTdM-5" target="hKfEfkx_NCAUf_qrGTdM-8">
          <mxGeometry relative="1" as="geometry" />
        </mxCell>
        <mxCell id="hKfEfkx_NCAUf_qrGTdM-15" value="心跳机制" style="edgeLabel;html=1;align=center;verticalAlign=middle;resizable=0;points=[];fontFamily=Comic Sans MS;fontColor=#FF0000;fontStyle=1" vertex="1" connectable="0" parent="hKfEfkx_NCAUf_qrGTdM-14">
          <mxGeometry x="0.3225" y="-20" relative="1" as="geometry">
            <mxPoint y="1" as="offset" />
          </mxGeometry>
        </mxCell>
        <mxCell id="hKfEfkx_NCAUf_qrGTdM-5" value="注册中心" style="rounded=1;whiteSpace=wrap;html=1;sketch=1;fontStyle=1;fontFamily=Comic Sans MS;fillColor=#ffe6cc;strokeColor=#d79b00;" vertex="1" parent="1">
          <mxGeometry x="280" y="160" width="150" height="50" as="geometry" />
        </mxCell>
        <mxCell id="hKfEfkx_NCAUf_qrGTdM-10" value="订阅/发现服务" style="edgeStyle=none;rounded=0;orthogonalLoop=1;jettySize=auto;html=1;exitX=0.5;exitY=0;exitDx=0;exitDy=0;entryX=0;entryY=0.5;entryDx=0;entryDy=0;fontStyle=1;sketch=1;fontFamily=Comic Sans MS;" edge="1" parent="1" source="hKfEfkx_NCAUf_qrGTdM-7" target="hKfEfkx_NCAUf_qrGTdM-5">
          <mxGeometry relative="1" as="geometry" />
        </mxCell>
        <mxCell id="hKfEfkx_NCAUf_qrGTdM-11" style="edgeStyle=none;rounded=0;orthogonalLoop=1;jettySize=auto;html=1;exitX=1;exitY=0.5;exitDx=0;exitDy=0;entryX=0;entryY=0.5;entryDx=0;entryDy=0;fontStyle=1;sketch=1;fontFamily=Comic Sans MS;dashed=1;" edge="1" parent="1" source="hKfEfkx_NCAUf_qrGTdM-7" target="hKfEfkx_NCAUf_qrGTdM-8">
          <mxGeometry relative="1" as="geometry" />
        </mxCell>
        <mxCell id="hKfEfkx_NCAUf_qrGTdM-12" value="服务调用" style="edgeLabel;html=1;align=center;verticalAlign=middle;resizable=0;points=[];fontStyle=1;fontFamily=Comic Sans MS;" vertex="1" connectable="0" parent="hKfEfkx_NCAUf_qrGTdM-11">
          <mxGeometry x="0.1053" y="-1" relative="1" as="geometry">
            <mxPoint as="offset" />
          </mxGeometry>
        </mxCell>
        <mxCell id="hKfEfkx_NCAUf_qrGTdM-7" value="服务消费者" style="rounded=1;whiteSpace=wrap;html=1;sketch=1;fontStyle=1;fontFamily=Comic Sans MS;fillColor=#f8cecc;strokeColor=#b85450;" vertex="1" parent="1">
          <mxGeometry x="110" y="280" width="150" height="50" as="geometry" />
        </mxCell>
        <mxCell id="hKfEfkx_NCAUf_qrGTdM-9" value="注册" style="rounded=0;orthogonalLoop=1;jettySize=auto;html=1;exitX=0.5;exitY=0;exitDx=0;exitDy=0;entryX=1;entryY=0.5;entryDx=0;entryDy=0;fontStyle=1;sketch=1;fontFamily=Comic Sans MS;" edge="1" parent="1" source="hKfEfkx_NCAUf_qrGTdM-8" target="hKfEfkx_NCAUf_qrGTdM-5">
          <mxGeometry relative="1" as="geometry">
            <mxPoint x="460" y="210" as="targetPoint" />
          </mxGeometry>
        </mxCell>
        <mxCell id="hKfEfkx_NCAUf_qrGTdM-8" value="服务提供者" style="rounded=1;whiteSpace=wrap;html=1;sketch=1;fontStyle=1;fontFamily=Comic Sans MS;fillColor=#d5e8d4;strokeColor=#82b366;" vertex="1" parent="1">
          <mxGeometry x="450" y="280" width="150" height="50" as="geometry" />
        </mxCell>
        <mxCell id="hKfEfkx_NCAUf_qrGTdM-13" value="服务消费者通过注册中心发现已注册的服务" style="text;html=1;strokeColor=none;fillColor=none;align=center;verticalAlign=middle;whiteSpace=wrap;rounded=0;fontStyle=1;fontColor=#FF0000;fontFamily=Comic Sans MS;" vertex="1" parent="1">
          <mxGeometry x="237.5" y="240" width="235" height="30" as="geometry" />
        </mxCell>
        <mxCell id="hKfEfkx_NCAUf_qrGTdM-16" value="Nginx" style="rounded=1;whiteSpace=wrap;html=1;sketch=1;fontStyle=1;fontFamily=Comic Sans MS;fillColor=#f8cecc;strokeColor=#b85450;" vertex="1" parent="1">
          <mxGeometry x="-80" y="570" width="130" height="50" as="geometry" />
        </mxCell>
        <mxCell id="hKfEfkx_NCAUf_qrGTdM-17" value="API 网关&lt;br&gt;（Ocelot）" style="rounded=1;whiteSpace=wrap;html=1;sketch=1;fontStyle=1;fontFamily=Comic Sans MS;fillColor=#f8cecc;strokeColor=#b85450;" vertex="1" parent="1">
          <mxGeometry x="260" y="520" width="150" height="50" as="geometry" />
        </mxCell>
        <mxCell id="hKfEfkx_NCAUf_qrGTdM-20" value="API 网关&lt;br&gt;（Ocelot）" style="rounded=1;whiteSpace=wrap;html=1;sketch=1;fontStyle=1;fontFamily=Comic Sans MS;fillColor=#f8cecc;strokeColor=#b85450;" vertex="1" parent="1">
          <mxGeometry x="260" y="600" width="150" height="50" as="geometry" />
        </mxCell>
        <mxCell id="hKfEfkx_NCAUf_qrGTdM-21" value="聚合服务（位置）" style="rounded=1;whiteSpace=wrap;html=1;sketch=1;fontStyle=1;fontFamily=Comic Sans MS;fillColor=#f8cecc;strokeColor=#b85450;" vertex="1" parent="1">
          <mxGeometry x="490" y="510" width="150" height="50" as="geometry" />
        </mxCell>
        <mxCell id="hKfEfkx_NCAUf_qrGTdM-22" value="聚合服务（订单）" style="rounded=1;whiteSpace=wrap;html=1;sketch=1;fontStyle=1;fontFamily=Comic Sans MS;fillColor=#f8cecc;strokeColor=#b85450;" vertex="1" parent="1">
          <mxGeometry x="490" y="630" width="150" height="50" as="geometry" />
        </mxCell>
        <mxCell id="hKfEfkx_NCAUf_qrGTdM-28" style="edgeStyle=orthogonalEdgeStyle;curved=1;rounded=0;sketch=1;orthogonalLoop=1;jettySize=auto;html=1;exitX=0;exitY=0.5;exitDx=0;exitDy=0;entryX=0;entryY=0.5;entryDx=0;entryDy=0;dashed=1;fontFamily=Comic Sans MS;fontColor=#FF0000;startArrow=classic;startFill=1;endArrow=none;endFill=0;" edge="1" parent="1" source="hKfEfkx_NCAUf_qrGTdM-24" target="hKfEfkx_NCAUf_qrGTdM-17">
          <mxGeometry relative="1" as="geometry">
            <Array as="points">
              <mxPoint x="200" y="760" />
              <mxPoint x="200" y="545" />
            </Array>
          </mxGeometry>
        </mxCell>
        <mxCell id="hKfEfkx_NCAUf_qrGTdM-24" value="Consule" style="rounded=1;whiteSpace=wrap;html=1;sketch=1;fontStyle=1;fontFamily=Comic Sans MS;fillColor=#f8cecc;strokeColor=#b85450;" vertex="1" parent="1">
          <mxGeometry x="264" y="730" width="150" height="60" as="geometry" />
        </mxCell>
        <mxCell id="hKfEfkx_NCAUf_qrGTdM-27" style="edgeStyle=orthogonalEdgeStyle;curved=1;rounded=0;sketch=1;orthogonalLoop=1;jettySize=auto;html=1;exitX=0.5;exitY=1;exitDx=0;exitDy=0;dashed=1;fontFamily=Comic Sans MS;fontColor=#FF0000;startArrow=classic;startFill=1;endArrow=none;endFill=0;" edge="1" parent="1" source="hKfEfkx_NCAUf_qrGTdM-24" target="hKfEfkx_NCAUf_qrGTdM-24">
          <mxGeometry relative="1" as="geometry" />
        </mxCell>
        <mxCell id="hKfEfkx_NCAUf_qrGTdM-32" value="" style="endArrow=classic;html=1;rounded=0;dashed=1;sketch=1;fontFamily=Comic Sans MS;fontColor=#FF0000;curved=1;exitX=0;exitY=0.5;exitDx=0;exitDy=0;edgeStyle=orthogonalEdgeStyle;entryX=0;entryY=0.5;entryDx=0;entryDy=0;" edge="1" parent="1" source="hKfEfkx_NCAUf_qrGTdM-20" target="hKfEfkx_NCAUf_qrGTdM-24">
          <mxGeometry width="50" height="50" relative="1" as="geometry">
            <mxPoint x="60" y="710" as="sourcePoint" />
            <mxPoint x="50" y="790" as="targetPoint" />
            <Array as="points">
              <mxPoint x="220" y="625" />
              <mxPoint x="220" y="760" />
            </Array>
          </mxGeometry>
        </mxCell>
        <mxCell id="hKfEfkx_NCAUf_qrGTdM-34" value="动态路由" style="text;html=1;strokeColor=none;fillColor=none;align=center;verticalAlign=middle;whiteSpace=wrap;rounded=0;fontFamily=Comic Sans MS;fontColor=#FF0000;fontStyle=1" vertex="1" parent="1">
          <mxGeometry x="130" y="670" width="90" height="30" as="geometry" />
        </mxCell>
      </root>
    </mxGraphModel>
  </diagram>
</mxfile>
